<svg width="14" height="13" viewBox="0 0 14 13" fill="none" xmlns="http://www.w3.org/2000/svg">
<path d="M11.4997 8.49999C11.0577 8.49976 10.6283 8.64665 10.2791 8.91749L8.83468 7.79249C8.94372 7.54252 8.9999 7.27271 8.99968 6.99999C8.99968 6.95374 8.99968 6.90749 8.99468 6.86187L9.82156 6.58624C10.0832 6.98971 10.4814 7.28541 10.9432 7.4192C11.4051 7.55299 11.8997 7.5159 12.3364 7.31472C12.7732 7.11354 13.1228 6.76175 13.3213 6.32378C13.5198 5.88581 13.5539 5.39099 13.4173 4.92996C13.2807 4.46892 12.9825 4.07254 12.5775 3.81341C12.1724 3.55429 11.6875 3.44978 11.2117 3.51901C10.7359 3.58825 10.3009 3.82661 9.98648 4.19042C9.67206 4.55423 9.49924 5.01914 9.49968 5.49999C9.49968 5.54624 9.49968 5.59249 9.50468 5.63812L8.67781 5.91374C8.49654 5.63351 8.24803 5.4031 7.95492 5.2435C7.66182 5.0839 7.33343 5.00019 6.99968 4.99999C6.88933 5.00022 6.77917 5.00942 6.67031 5.02749L6.24281 4.06249C6.61194 3.76755 6.86474 3.35144 6.95638 2.88792C7.04803 2.4244 6.9726 1.94339 6.74348 1.53017C6.51436 1.11694 6.14634 0.798178 5.70464 0.630375C5.26295 0.462572 4.77611 0.456567 4.33041 0.613425C3.88471 0.770282 3.50894 1.07987 3.26969 1.48732C3.03045 1.89477 2.94319 2.37377 3.02337 2.83941C3.10356 3.30505 3.34601 3.72727 3.70776 4.03122C4.06951 4.33518 4.52719 4.50125 4.99968 4.49999C5.11004 4.49976 5.22019 4.49057 5.32906 4.47249L5.75656 5.43499C5.39403 5.72192 5.14241 6.12585 5.04472 6.57775C4.94702 7.02964 5.00931 7.50144 5.22093 7.91249L3.61406 9.33999C3.20967 9.06738 2.71974 8.9516 2.2361 9.01437C1.75246 9.07714 1.30831 9.31413 0.986912 9.68094C0.665511 10.0478 0.48892 10.5192 0.490242 11.0069C0.491563 11.4946 0.670705 11.965 0.994089 12.3301C1.31747 12.6952 1.7629 12.9298 2.24687 12.9899C2.73085 13.0501 3.22014 12.9316 3.62304 12.6568C4.02595 12.382 4.3148 11.9697 4.43545 11.4972C4.5561 11.0246 4.50027 10.5243 4.27843 10.09L5.88531 8.66249C6.23322 8.89675 6.64614 9.01535 7.06534 9.00144C7.48454 8.98753 7.88869 8.8418 8.22031 8.58499L9.66468 9.70999C9.55598 9.95919 9.49981 10.2281 9.49968 10.5C9.49968 10.8956 9.61698 11.2822 9.83674 11.6111C10.0565 11.94 10.3689 12.1964 10.7343 12.3478C11.0998 12.4991 11.5019 12.5387 11.8899 12.4616C12.2778 12.3844 12.6342 12.1939 12.9139 11.9142C13.1936 11.6345 13.3841 11.2781 13.4613 10.8902C13.5384 10.5022 13.4988 10.1001 13.3474 9.73463C13.1961 9.36917 12.9397 9.05682 12.6108 8.83705C12.2819 8.61729 11.8952 8.49999 11.4997 8.49999ZM11.4997 4.49999C11.6975 4.49999 11.8908 4.55864 12.0553 4.66852C12.2197 4.7784 12.3479 4.93458 12.4236 5.11731C12.4992 5.30004 12.5191 5.5011 12.4805 5.69508C12.4419 5.88906 12.3466 6.06725 12.2068 6.2071C12.0669 6.34695 11.8888 6.44219 11.6948 6.48078C11.5008 6.51936 11.2997 6.49956 11.117 6.42387C10.9343 6.34819 10.7781 6.22001 10.6682 6.05556C10.5583 5.89111 10.4997 5.69777 10.4997 5.49999C10.4997 5.23478 10.605 4.98042 10.7926 4.79289C10.9801 4.60535 11.2345 4.49999 11.4997 4.49999ZM3.99968 2.49999C3.99968 2.30221 4.05833 2.10887 4.16821 1.94442C4.27809 1.77997 4.43427 1.6518 4.617 1.57611C4.79972 1.50043 5.00079 1.48062 5.19477 1.51921C5.38875 1.55779 5.56694 1.65303 5.70679 1.79289C5.84664 1.93274 5.94188 2.11092 5.98047 2.3049C6.01905 2.49888 5.99925 2.69995 5.92356 2.88268C5.84787 3.0654 5.7197 3.22158 5.55525 3.33146C5.3908 3.44134 5.19746 3.49999 4.99968 3.49999C4.73447 3.49999 4.48011 3.39464 4.29258 3.2071C4.10504 3.01956 3.99968 2.76521 3.99968 2.49999ZM2.49968 12C2.3019 12 2.10856 11.9413 1.94411 11.8315C1.77966 11.7216 1.65149 11.5654 1.5758 11.3827C1.50011 11.2 1.48031 10.9989 1.5189 10.8049C1.55748 10.6109 1.65272 10.4327 1.79258 10.2929C1.93243 10.153 2.11061 10.0578 2.30459 10.0192C2.49857 9.98062 2.69964 10.0004 2.88237 10.0761C3.06509 10.1518 3.22127 10.28 3.33115 10.4444C3.44103 10.6089 3.49968 10.8022 3.49968 11C3.49968 11.2652 3.39433 11.5196 3.20679 11.7071C3.01925 11.8946 2.7649 12 2.49968 12ZM5.99968 6.99999C5.99968 6.80221 6.05833 6.60887 6.16821 6.44442C6.27809 6.27997 6.43427 6.1518 6.617 6.07611C6.79972 6.00043 7.00079 5.98062 7.19477 6.01921C7.38875 6.05779 7.56694 6.15303 7.70679 6.29289C7.84664 6.43274 7.94188 6.61092 7.98047 6.8049C8.01905 6.99888 7.99925 7.19995 7.92356 7.38268C7.84787 7.5654 7.7197 7.72158 7.55525 7.83146C7.3908 7.94134 7.19746 7.99999 6.99968 7.99999C6.73447 7.99999 6.48011 7.89464 6.29258 7.7071C6.10504 7.51956 5.99968 7.26521 5.99968 6.99999ZM11.4997 11.5C11.3019 11.5 11.1086 11.4413 10.9441 11.3315C10.7797 11.2216 10.6515 11.0654 10.5758 10.8827C10.5001 10.7 10.4803 10.4989 10.5189 10.3049C10.5575 10.1109 10.6527 9.93274 10.7926 9.79289C10.9324 9.65303 11.1106 9.55779 11.3046 9.51921C11.4986 9.48062 11.6996 9.50043 11.8824 9.57611C12.0651 9.6518 12.2213 9.77997 12.3312 9.94442C12.441 10.1089 12.4997 10.3022 12.4997 10.5C12.4997 10.7652 12.3943 11.0196 12.2068 11.2071C12.0193 11.3946 11.7649 11.5 11.4997 11.5Z" fill="#343330"/>
</svg>
